<svg xmlns="http://www.w3.org/2000/svg" xmlns:xlink="http://www.w3.org/1999/xlink" width="500" zoomAndPan="magnify" viewBox="0 0 375 374.999991" height="500" preserveAspectRatio="xMidYMid meet" version="1.0"><defs><g/><clipPath id="60adf2720c"><path d="M 67.757812 298 L 112 298 L 112 346 L 67.757812 346 Z M 67.757812 298 " clip-rule="nonzero"/></clipPath><clipPath id="0f4fa07ab4"><path d="M 0 182.121094 L 139.5 182.121094 L 139.5 302.871094 L 0 302.871094 Z M 0 182.121094 " clip-rule="nonzero"/></clipPath><clipPath id="73b61a3033"><path d="M 27 182.121094 L 112 182.121094 L 112 255 L 27 255 Z M 27 182.121094 " clip-rule="nonzero"/></clipPath></defs><rect x="-37.5" width="450" fill="#ffffff" y="-37.499999" height="449.999989" fill-opacity="1"/><rect x="-37.5" width="450" fill="#000000" y="-37.499999" height="449.999989" fill-opacity="1"/><path fill="#41b883" d="M 109.207031 286.117188 C 109.207031 286.117188 112.175781 292.992188 110.320312 296.015625 C 108.464844 299.042969 264.824219 297.667969 264.824219 297.667969 C 264.824219 297.667969 264.082031 289.96875 265.566406 288.042969 C 267.054688 286.117188 265.9375 286.667969 265.9375 286.667969 Z M 109.207031 286.117188 " fill-opacity="1" fill-rule="nonzero"/><path fill="#41b883" d="M 126.289062 274.566406 C 126.289062 274.566406 155.257812 215.714844 155.257812 213.789062 C 155.257812 211.863281 158.972656 212.136719 158.972656 212.136719 L 139.289062 274.84375 Z M 126.289062 274.566406 " fill-opacity="1" fill-rule="nonzero"/><path fill="#41b883" d="M 150.058594 208.011719 L 156.371094 205.261719 L 222.851562 206.085938 L 228.796875 207.734375 L 229.539062 205.261719 L 223.226562 203.609375 L 157.484375 203.0625 L 149.316406 204.4375 Z M 150.058594 208.011719 " fill-opacity="1" fill-rule="nonzero"/><path fill="#41b883" d="M 160.085938 200.035156 L 168.257812 200.859375 L 184.972656 46.027344 L 181.628906 47.675781 C 181.628906 47.675781 175.3125 107.355469 175.3125 109.832031 C 175.3125 112.304688 160.828125 199.210938 160.085938 200.035156 Z M 160.085938 200.035156 " fill-opacity="1" fill-rule="nonzero"/><path fill="#41b883" d="M 189.800781 24.710938 L 195.375 24.988281 C 195.375 24.988281 194.261719 4.636719 193.886719 2.710938 C 193.515625 0.785156 192.03125 1.609375 192.03125 1.609375 Z M 189.800781 24.710938 " fill-opacity="1" fill-rule="nonzero"/><path fill="#41b883" d="M 182.375 32.273438 C 181.558594 32.835938 190.542969 19.898438 202.058594 30.347656 L 201.964844 32.960938 C 201.964844 32.960938 192.960938 24.984375 182.375 32.273438 Z M 182.375 32.273438 " fill-opacity="1" fill-rule="nonzero"/><path fill="#41b883" d="M 179.304688 36.191406 L 179.492188 39.90625 L 184.042969 37.015625 L 200.289062 37.015625 L 200.847656 43.617188 C 200.847656 43.617188 203.910156 40.042969 204.65625 39.628906 C 205.398438 39.21875 205.492188 36.261719 205.492188 36.261719 L 201.871094 33.648438 L 183.207031 33.785156 Z M 179.304688 36.191406 " fill-opacity="1" fill-rule="nonzero"/><path fill="#41b883" d="M 190.914062 46.027344 L 193.886719 45.476562 C 193.886719 45.476562 191.65625 189.039062 199.457031 200.039062 L 179.402344 200.039062 C 179.402344 200.039062 196.855469 48.777344 190.914062 46.023438 Z M 190.914062 46.027344 " fill-opacity="1" fill-rule="nonzero"/><path fill="#41b883" d="M 154.144531 274.84375 L 158.972656 275.117188 C 158.972656 275.117188 173.828125 225.613281 173.457031 226.164062 C 173.085938 226.710938 169.742188 225.886719 169.742188 225.886719 C 169.742188 225.886719 155.257812 274.289062 154.144531 274.84375 Z M 154.144531 274.84375 " fill-opacity="1" fill-rule="nonzero"/><path fill="#41b883" d="M 203.539062 226.992188 C 204.65625 226.992188 207.253906 227.539062 207.253906 227.539062 C 207.253906 227.539062 228.425781 270.71875 229.539062 273.46875 C 230.652344 276.21875 230.652344 275.394531 230.652344 275.394531 L 219.882812 275.667969 Z M 203.539062 226.992188 " fill-opacity="1" fill-rule="nonzero"/><path fill="#41b883" d="M 223.226562 213.238281 C 223.226562 214.0625 249.222656 274.84375 249.222656 274.84375 L 243.652344 275.671875 C 243.652344 275.671875 216.539062 213.789062 215.425781 213.789062 C 214.3125 213.789062 223.226562 213.242188 223.226562 213.242188 Z M 223.226562 213.238281 " fill-opacity="1" fill-rule="nonzero"/><path fill="#41b883" d="M 206.515625 200.035156 L 217.65625 200.035156 C 217.65625 200.035156 200.199219 52.628906 200.199219 51.523438 C 200.199219 50.425781 205.769531 199.210938 206.515625 200.035156 Z M 206.515625 200.035156 " fill-opacity="1" fill-rule="nonzero"/><path fill="#41b883" d="M 153.214844 208.835938 C 153.214844 208.835938 154.703125 210.074219 154.515625 210.761719 C 154.332031 211.449219 223.78125 211.585938 223.78125 211.585938 C 223.78125 211.585938 224.523438 210.074219 225.082031 209.800781 C 225.640625 209.527344 153.214844 208.835938 153.214844 208.835938 Z M 153.214844 208.835938 " fill-opacity="1" fill-rule="nonzero"/><path fill="#41b883" d="M 110.132812 275.527344 C 110.691406 275.527344 265.75 276.355469 265.75 276.355469 C 265.75 276.355469 264.265625 278.140625 264.265625 279.242188 C 264.265625 280.34375 114.589844 278.96875 114.03125 279.792969 C 113.476562 280.617188 110.132812 275.527344 110.132812 275.527344 Z M 110.132812 275.527344 " fill-opacity="1" fill-rule="nonzero"/><g clip-path="url(#60adf2720c)"><path fill="#41b883" d="M 108.648438 298.769531 C 108.464844 299.183594 67.796875 342.910156 67.796875 342.910156 C 67.796875 342.910156 72.4375 346.070312 72.996094 345.933594 C 73.550781 345.796875 100.851562 313.207031 102.152344 313.070312 C 103.449219 312.933594 111.621094 301.519531 111.066406 300.832031 C 110.507812 300.144531 108.648438 298.769531 108.648438 298.769531 Z M 108.648438 298.769531 " fill-opacity="1" fill-rule="nonzero"/></g><path fill="#41b883" d="M 115.148438 372.207031 C 115.148438 371.65625 125.363281 347.867188 143.558594 338.382812 C 161.757812 328.894531 176.429688 327.242188 178.097656 327.105469 C 179.769531 326.96875 195.371094 326.96875 202.425781 328.070312 C 209.480469 329.167969 231.953125 338.65625 233.625 340.308594 C 235.296875 341.957031 245.324219 352.40625 247.738281 355.019531 C 250.152344 357.632812 254.609375 367.808594 255.722656 373.308594 C 256.835938 378.808594 257.394531 381.421875 257.394531 381.421875 C 257.394531 381.421875 254.238281 361.210938 256.652344 360.246094 C 259.066406 359.285156 262.410156 358.320312 262.410156 358.320312 C 262.410156 358.320312 249.59375 340.308594 226.753906 327.109375 C 203.914062 313.90625 129.074219 310.742188 113.660156 372.070312 Z M 115.148438 372.207031 " fill-opacity="1" fill-rule="nonzero"/><path fill="#41b883" d="M 268.164062 301.519531 C 268.164062 301.519531 306.421875 344.144531 306.789062 344.972656 C 307.160156 345.796875 298.246094 348.957031 298.246094 348.957031 L 266.121094 301.929688 L 268.164062 301.515625 Z M 268.164062 301.519531 " fill-opacity="1" fill-rule="nonzero"/><path fill="#41b883" d="M 111.105469 313.824219 C 110.410156 314.546875 106.371094 319.601562 106.371094 319.601562 L 102.472656 315.0625 Z M 111.105469 313.824219 " fill-opacity="1" fill-rule="nonzero"/><path fill="#41b883" d="M 90.773438 328.992188 C 91.191406 328.890625 97.597656 329.097656 97.597656 329.097656 L 102.054688 323.425781 Z M 90.773438 328.992188 " fill-opacity="1" fill-rule="nonzero"/><path fill="#41b883" d="M 88.128906 331.667969 L 94.953125 332.082031 L 89.796875 337.339844 L 87.847656 331.976562 C 87.847656 331.976562 88.265625 331.460938 88.128906 331.667969 Z M 88.128906 331.667969 " fill-opacity="1" fill-rule="nonzero"/><path fill="#41b883" d="M 115.5625 328.058594 L 120.441406 322.902344 L 110.132812 322.179688 Z M 115.5625 328.058594 " fill-opacity="1" fill-rule="nonzero"/><path fill="#41b883" d="M 112.917969 319.808594 L 122.945312 320.21875 L 126.847656 314.960938 Z M 112.917969 319.808594 " fill-opacity="1" fill-rule="nonzero"/><path fill="#41b883" d="M 115.148438 313.101562 L 109.15625 318.671875 L 123.921875 313.929688 Z M 115.148438 313.101562 " fill-opacity="1" fill-rule="nonzero"/><path fill="#41b883" d="M 112.222656 333.117188 L 107.207031 338.46875 L 94.675781 338.695312 Z M 112.222656 333.117188 " fill-opacity="1" fill-rule="nonzero"/><path fill="#41b883" d="M 104.980469 341.144531 L 99.6875 346.621094 L 93.835938 340.949219 Z M 104.980469 341.144531 " fill-opacity="1" fill-rule="nonzero"/><path fill="#41b883" d="M 90.355469 341.789062 L 96.207031 347.554688 L 79.214844 345.269531 Z M 90.355469 341.789062 " fill-opacity="1" fill-rule="nonzero"/><path fill="#41b883" d="M 84.507812 335.601562 L 77.542969 342.691406 L 87.707031 338.984375 Z M 84.507812 335.601562 " fill-opacity="1" fill-rule="nonzero"/><path fill="#41b883" d="M 106.792969 323.835938 L 101.496094 329.089844 L 111.945312 329.089844 Z M 106.792969 323.835938 " fill-opacity="1" fill-rule="nonzero"/><path fill="#41b883" d="M 161.039062 217.140625 C 161.523438 217.550781 163.476562 219.613281 163.476562 219.613281 L 164.242188 215.179688 Z M 161.039062 217.140625 " fill-opacity="1" fill-rule="nonzero"/><path fill="#41b883" d="M 157.761719 213.683594 L 160.339844 216.109375 L 164.03125 213.53125 L 157.625 212.652344 C 157.625 212.652344 154.976562 220.492188 155.1875 220.542969 C 155.398438 220.59375 161.664062 220.695312 161.664062 220.695312 L 159.644531 217.914062 L 156.371094 218.945312 Z M 157.761719 213.683594 " fill-opacity="1" fill-rule="nonzero"/><path fill="#41b883" d="M 168 213.21875 L 174.203125 213.53125 L 170.71875 216.109375 Z M 168 213.21875 " fill-opacity="1" fill-rule="nonzero"/><path fill="#41b883" d="M 170.09375 217.707031 L 166.121094 220.546875 L 171.832031 220.546875 Z M 170.09375 217.707031 " fill-opacity="1" fill-rule="nonzero"/><path fill="#41b883" d="M 165.984375 214.457031 L 165.289062 219.40625 L 168.90625 217.140625 Z M 165.984375 214.457031 " fill-opacity="1" fill-rule="nonzero"/><path fill="#41b883" d="M 174.6875 215.078125 C 174.6875 215.230469 174.132812 219.304688 174.132812 219.304688 L 171.625 217.140625 Z M 174.6875 215.078125 " fill-opacity="1" fill-rule="nonzero"/><path fill="#41b883" d="M 177.40625 214.714844 L 176.21875 219.613281 L 180.746094 217.292969 Z M 177.40625 214.714844 " fill-opacity="1" fill-rule="nonzero"/><path fill="#41b883" d="M 178.9375 213.476562 L 187.082031 213.632812 L 182.765625 216.417969 Z M 178.9375 213.476562 " fill-opacity="1" fill-rule="nonzero"/><path fill="#41b883" d="M 182.210938 217.757812 C 181.929688 217.914062 177.613281 220.492188 177.613281 220.492188 L 186.386719 220.75 L 182.210938 217.605469 Z M 182.210938 217.757812 " fill-opacity="1" fill-rule="nonzero"/><path fill="#41b883" d="M 184.160156 217.035156 L 188.125 220.078125 L 188.472656 214.148438 Z M 184.160156 217.035156 " fill-opacity="1" fill-rule="nonzero"/><path fill="#41b883" d="M 190.007812 214.40625 L 189.800781 220.335938 L 193.90625 217.5 Z M 190.007812 214.40625 " fill-opacity="1" fill-rule="nonzero"/><path fill="#41b883" d="M 191.332031 221.007812 L 195.71875 218.171875 L 200.734375 220.957031 Z M 191.332031 221.007812 " fill-opacity="1" fill-rule="nonzero"/><path fill="#41b883" d="M 201.148438 214.972656 L 201.148438 219.5625 L 197.53125 217.242188 Z M 201.148438 214.972656 " fill-opacity="1" fill-rule="nonzero"/><path fill="#41b883" d="M 208.53125 227.144531 L 215.425781 230.238281 L 215.355469 226.9375 Z M 208.53125 227.144531 " fill-opacity="1" fill-rule="nonzero"/><path fill="#41b883" d="M 184.972656 38.597656 L 199.640625 38.53125 L 192.863281 44.71875 Z M 184.972656 38.597656 " fill-opacity="1" fill-rule="nonzero"/><path fill="#41b883" d="M 205.027344 40.800781 C 204.75 41.144531 200.945312 45.75 200.945312 45.75 L 201.40625 56.203125 L 202.429688 49.671875 L 204.566406 47.539062 Z M 205.027344 40.800781 " fill-opacity="1" fill-rule="nonzero"/><path fill="#41b883" d="M 179.863281 40.800781 C 179.863281 40.800781 183.761719 44.375 183.578125 44.996094 C 183.390625 45.613281 180.976562 46.78125 180.976562 46.78125 L 179.585938 46.507812 Z M 179.863281 40.800781 " fill-opacity="1" fill-rule="nonzero"/><path fill="#41b883" d="M 175.21875 242.320312 C 175.5 242.320312 202.796875 242.734375 202.796875 242.734375 L 209.015625 274.085938 L 215.332031 274.015625 L 202.980469 239.636719 L 175.035156 241.011719 Z M 175.21875 242.320312 " fill-opacity="1" fill-rule="nonzero"/><path fill="#41b883" d="M 174.296875 241.082031 C 174.296875 241.289062 171.324219 267.761719 167.425781 273.878906 L 163.710938 273.949219 L 173.367188 241.085938 L 174.296875 241.085938 Z M 174.296875 241.082031 " fill-opacity="1" fill-rule="nonzero"/><path fill="#41b883" d="M 175.964844 231.734375 L 175.035156 237.988281 L 201.589844 238.402344 L 202.429688 232.421875 L 201.683594 232.351562 L 200.476562 236.617188 L 178.195312 236.546875 L 177.355469 232.007812 L 190.914062 231.871094 L 196.207031 231.941406 L 175.871094 230.492188 Z M 175.964844 231.734375 " fill-opacity="1" fill-rule="nonzero"/><path fill="#41b883" d="M 207.347656 228.980469 C 208.089844 229.1875 215.890625 232.488281 215.890625 232.488281 C 215.890625 232.488281 210.96875 235.789062 210.785156 235.996094 C 210.597656 236.199219 207.347656 228.980469 207.347656 228.980469 Z M 207.347656 228.980469 " fill-opacity="1" fill-rule="nonzero"/><path fill="#41b883" d="M 210.597656 238.402344 L 216.914062 234.621094 L 218.117188 238.8125 L 210.503906 238.8125 Z M 210.597656 238.402344 " fill-opacity="1" fill-rule="nonzero"/><path fill="#41b883" d="M 230.191406 263.757812 L 237.851562 267.933594 L 232.902344 269.632812 Z M 230.191406 263.757812 " fill-opacity="1" fill-rule="nonzero"/><path fill="#41b883" d="M 212.921875 240.5 C 213.410156 240.601562 218.699219 240.601562 218.699219 240.601562 L 220.441406 244.574219 Z M 212.921875 240.5 " fill-opacity="1" fill-rule="nonzero"/><path fill="#41b883" d="M 161.875 232.300781 C 161.945312 232.144531 169.464844 228.949219 169.464844 228.949219 L 167.375 236.425781 Z M 161.875 232.300781 " fill-opacity="1" fill-rule="nonzero"/><path fill="#41b883" d="M 162.710938 226.421875 L 161.664062 230.1875 L 168.769531 226.679688 Z M 162.710938 226.421875 " fill-opacity="1" fill-rule="nonzero"/><path fill="#41b883" d="M 160.136719 226.9375 L 153.585938 226.214844 L 158.738281 230.1875 Z M 160.136719 226.9375 " fill-opacity="1" fill-rule="nonzero"/><path fill="#41b883" d="M 152.542969 228.945312 C 152.890625 229.152344 157.628906 232.09375 157.628906 232.09375 L 150.316406 235.546875 Z M 152.542969 228.945312 " fill-opacity="1" fill-rule="nonzero"/><path fill="#41b883" d="M 160.691406 234.003906 L 158.878906 238.332031 L 166.539062 238.695312 Z M 160.691406 234.003906 " fill-opacity="1" fill-rule="nonzero"/><path fill="#41b883" d="M 165.289062 242.40625 L 156.511719 246.6875 L 162.78125 250.964844 Z M 165.289062 242.40625 " fill-opacity="1" fill-rule="nonzero"/><path fill="#41b883" d="M 161.246094 257.105469 L 150.800781 261.488281 L 158.183594 266.902344 Z M 161.246094 257.105469 " fill-opacity="1" fill-rule="nonzero"/><path fill="#41b883" d="M 149.058594 263.859375 C 148.851562 264.066406 144.046875 273.914062 144.046875 273.914062 L 154.5625 269.582031 Z M 149.058594 263.859375 " fill-opacity="1" fill-rule="nonzero"/><path fill="#41b883" d="M 154.773438 248.75 L 151.011719 258.546875 L 159.019531 255.296875 L 160.203125 252.203125 Z M 154.773438 248.75 " fill-opacity="1" fill-rule="nonzero"/><path fill="#41b883" d="M 157.28125 235.035156 C 157.210938 235.1875 156.097656 238.953125 156.097656 238.953125 L 149.132812 238.230469 Z M 157.28125 235.035156 " fill-opacity="1" fill-rule="nonzero"/><path fill="#41b883" d="M 142.769531 313.792969 L 139.910156 310.433594 C 139.511719 309.859375 138.691406 309.460938 137.730469 309.460938 C 136.386719 309.460938 135.292969 310.238281 135.292969 311.199219 C 135.292969 311.558594 135.449219 311.890625 135.710938 312.167969 C 135.785156 312.246094 135.867188 312.316406 135.957031 312.382812 L 138.960938 315.441406 Z M 142.769531 313.792969 " fill-opacity="1" fill-rule="nonzero"/><path fill="#41b883" d="M 148.53125 311.941406 L 146.132812 308.757812 C 145.808594 308.222656 145.078125 307.824219 144.183594 307.78125 C 142.933594 307.722656 141.859375 308.382812 141.78125 309.253906 C 141.753906 309.582031 141.871094 309.890625 142.09375 310.15625 C 142.15625 310.226562 142.230469 310.296875 142.304688 310.359375 L 144.863281 313.277344 Z M 148.53125 311.941406 " fill-opacity="1" fill-rule="nonzero"/><path fill="#41b883" d="M 150.382812 311.730469 L 154.886719 310.699219 C 154.886719 310.699219 153.03125 306.816406 150.664062 307.847656 C 150.664062 307.847656 148.199219 309.082031 150.335938 311.664062 C 152.472656 314.238281 150.382812 311.730469 150.382812 311.730469 Z M 150.382812 311.730469 " fill-opacity="1" fill-rule="nonzero"/><path fill="#41b883" d="M 127.679688 320.015625 C 127.675781 320.140625 131.253906 318.367188 131.253906 318.367188 C 131.253906 318.367188 127.773438 318.019531 127.679688 320.015625 Z M 127.679688 320.015625 " fill-opacity="1" fill-rule="nonzero"/><path fill="#41b883" d="M 132.925781 317.609375 C 133.300781 317.367188 136.78125 315.855469 136.78125 315.855469 L 135.574219 314.410156 C 135.574219 314.410156 131.117188 313.277344 131.535156 316.164062 Z M 132.925781 317.609375 " fill-opacity="1" fill-rule="nonzero"/><path fill="#41b883" d="M 156.511719 310.320312 L 161.199219 309.699219 L 161.015625 308.738281 C 161.015625 308.738281 157.859375 306.742188 156.371094 309.183594 Z M 156.511719 310.320312 " fill-opacity="1" fill-rule="nonzero"/><path fill="#41b883" d="M 163.011719 309.253906 L 167.65625 308.632812 C 167.65625 308.632812 165.289062 306.949219 163.011719 309.253906 Z M 163.011719 309.253906 " fill-opacity="1" fill-rule="nonzero"/><path fill="#41b883" d="M 149.5 239.433594 C 150.429688 239.640625 154.792969 240.257812 154.792969 240.257812 L 153.492188 243.96875 L 148.386719 240.671875 Z M 149.5 239.433594 " fill-opacity="1" fill-rule="nonzero"/><path fill="#41b883" d="M 148.203125 242.9375 C 147.765625 243.910156 152.566406 246.445312 152.566406 246.445312 L 146.253906 248.714844 C 146.253906 248.714844 148.296875 242.734375 148.203125 242.9375 Z M 148.203125 242.9375 " fill-opacity="1" fill-rule="nonzero"/><path fill="#41b883" d="M 144.671875 252.976562 C 145.042969 252.976562 150.246094 253.320312 150.246094 253.320312 L 151.636719 248.714844 L 144.671875 251.601562 L 144.765625 252.703125 L 149.410156 255.109375 L 147.457031 259.371094 L 143.464844 254.765625 L 145.972656 263.429688 L 138.824219 270.027344 Z M 144.671875 252.976562 " fill-opacity="1" fill-rule="nonzero"/><path fill="#41b883" d="M 205.539062 221.109375 L 211.804688 220.902344 L 208.046875 218.429688 Z M 205.539062 221.109375 " fill-opacity="1" fill-rule="nonzero"/><path fill="#41b883" d="M 108.324219 310.835938 L 131.164062 311.351562 L 141.890625 299.183594 L 129.078125 308.152344 Z M 108.324219 310.835938 " fill-opacity="1" fill-rule="nonzero"/><path fill="#41b883" d="M 214.171875 309.496094 L 218.769531 310.523438 C 218.769531 310.523438 218.628906 306.710938 214.171875 309.496094 Z M 214.171875 309.496094 " fill-opacity="1" fill-rule="nonzero"/><path fill="#41b883" d="M 247.875 316.300781 C 248.15625 316.710938 251.496094 321.351562 251.496094 321.351562 L 262.917969 321.042969 L 253.167969 319.703125 Z M 247.875 316.300781 " fill-opacity="1" fill-rule="nonzero"/><path fill="#41b883" d="M 254.003906 323.835938 C 254.5625 324.457031 258.460938 329.097656 258.460938 329.097656 L 264.03125 324.148438 L 258.460938 326.210938 Z M 254.003906 323.835938 " fill-opacity="1" fill-rule="nonzero"/><path fill="#41b883" d="M 261.808594 333.828125 C 262.226562 334.34375 266.542969 339.5 266.542969 339.5 L 272.949219 339.398438 L 267.378906 337.847656 Z M 261.808594 333.828125 " fill-opacity="1" fill-rule="nonzero"/><path fill="#41b883" d="M 220.582031 311.246094 L 246.625 321.5625 C 246.625 321.5625 225.316406 308.257812 223.085938 308.359375 C 220.859375 308.464844 220.441406 310.628906 220.441406 310.9375 " fill-opacity="1" fill-rule="nonzero"/><path fill="#41b883" d="M 214.453125 244.003906 L 220.996094 247.203125 L 216.957031 250.707031 Z M 214.453125 244.003906 " fill-opacity="1" fill-rule="nonzero"/><path fill="#41b883" d="M 222.113281 249.472656 L 218.074219 253.804688 L 224.0625 255.558594 Z M 222.113281 249.472656 " fill-opacity="1" fill-rule="nonzero"/><path fill="#41b883" d="M 223.226562 262.054688 L 228.9375 266.902344 L 226.011719 268.964844 Z M 223.226562 262.054688 " fill-opacity="1" fill-rule="nonzero"/><path fill="#41b883" d="M 219.046875 218.324219 L 216.539062 220.695312 L 220.71875 221.007812 Z M 219.046875 218.324219 " fill-opacity="1" fill-rule="nonzero"/><path fill="#41b883" d="M 167.097656 196.257812 C 168.070312 196.875 170.996094 198.835938 170.996094 198.835938 L 178.65625 192.851562 L 175.035156 189.039062 L 166.957031 193.472656 L 167.09375 196.257812 Z M 167.097656 196.257812 " fill-opacity="1" fill-rule="nonzero"/><path fill="#41b883" d="M 169.1875 184.394531 C 169.605469 184.910156 172.53125 188.625 172.53125 188.625 L 167.378906 191.203125 Z M 169.1875 184.394531 " fill-opacity="1" fill-rule="nonzero"/><path fill="#41b883" d="M 168.90625 178.824219 C 169.324219 179.445312 174.199219 184.5 174.199219 184.5 L 180.605469 179.652344 L 175.871094 174.496094 Z M 168.90625 178.824219 " fill-opacity="1" fill-rule="nonzero"/><path fill="#41b883" d="M 169.746094 176.453125 L 173.921875 172.949219 L 169.746094 168.925781 Z M 169.746094 176.453125 " fill-opacity="1" fill-rule="nonzero"/><path fill="#41b883" d="M 170.160156 164.390625 L 176.707031 160.984375 L 171.554688 156.34375 Z M 170.160156 164.390625 " fill-opacity="1" fill-rule="nonzero"/><path fill="#41b883" d="M 172.527344 145.617188 L 171 152.734375 L 178.378906 149.019531 Z M 172.527344 145.617188 " fill-opacity="1" fill-rule="nonzero"/><path fill="#41b883" d="M 172.804688 141.699219 L 179.910156 137.472656 L 174.058594 133.035156 L 172.527344 142.214844 Z M 172.804688 141.699219 " fill-opacity="1" fill-rule="nonzero"/><path fill="#41b883" d="M 174.339844 130.253906 L 174.480469 130.765625 L 181.863281 126.535156 L 175.035156 122.101562 Z M 174.339844 130.253906 " fill-opacity="1" fill-rule="nonzero"/><path fill="#41b883" d="M 176.570312 111.070312 L 175.3125 119.9375 L 181.863281 116.429688 Z M 176.570312 111.070312 " fill-opacity="1" fill-rule="nonzero"/><path fill="#41b883" d="M 177.125 109.933594 L 182.695312 106.429688 L 177.40625 102.507812 Z M 177.125 109.933594 " fill-opacity="1" fill-rule="nonzero"/><path fill="#41b883" d="M 178.101562 100.859375 L 183.53125 98.074219 L 178.515625 93.945312 Z M 178.101562 100.859375 " fill-opacity="1" fill-rule="nonzero"/><path fill="#41b883" d="M 178.796875 92.710938 L 184.226562 89.511719 L 179.355469 85.285156 Z M 178.796875 92.710938 " fill-opacity="1" fill-rule="nonzero"/><path fill="#41b883" d="M 179.632812 84.460938 L 184.226562 82.191406 L 180.328125 78.066406 Z M 179.632812 84.460938 " fill-opacity="1" fill-rule="nonzero"/><path fill="#41b883" d="M 180.746094 76.933594 L 185.203125 74.355469 L 181.582031 71.878906 Z M 180.746094 76.933594 " fill-opacity="1" fill-rule="nonzero"/><path fill="#41b883" d="M 181.441406 70.332031 L 185.34375 68.164062 C 185.34375 68.164062 182.417969 64.867188 182.417969 65.277344 C 182.417969 65.691406 181.441406 70.332031 181.441406 70.332031 Z M 181.441406 70.332031 " fill-opacity="1" fill-rule="nonzero"/><path fill="#41b883" d="M 181.863281 63.625 L 186.179688 61.976562 L 182.414062 58.777344 Z M 181.863281 63.625 " fill-opacity="1" fill-rule="nonzero"/><path fill="#41b883" d="M 183.113281 58.160156 L 186.59375 56.203125 L 183.113281 53.417969 Z M 183.113281 58.160156 " fill-opacity="1" fill-rule="nonzero"/><path fill="#41b883" d="M 183.949219 52.28125 L 186.457031 51.148438 L 184.644531 48.878906 Z M 183.949219 52.28125 " fill-opacity="1" fill-rule="nonzero"/><path fill="#41b883" d="M 173.457031 168.960938 C 174.015625 169.238281 175.871094 172.125 175.871094 172.125 L 181.816406 167.035156 L 176.800781 166.761719 L 173.828125 163.875 Z M 173.457031 168.960938 " fill-opacity="1" fill-rule="nonzero"/><path fill="#41b883" d="M 174.574219 156.308594 L 177.914062 159.332031 L 182.371094 156.445312 L 178.65625 156.171875 L 175.5 152.457031 L 174.203125 152.734375 Z M 174.574219 156.308594 " fill-opacity="1" fill-rule="nonzero"/><path fill="#41b883" d="M 175.6875 144.894531 L 179.585938 147.644531 L 183.300781 144.484375 L 178.84375 144.210938 L 177.542969 140.359375 L 175.6875 141.183594 Z M 175.6875 144.894531 " fill-opacity="1" fill-rule="nonzero"/><path fill="#41b883" d="M 177.167969 133.070312 L 181.628906 136.367188 L 184.226562 135.269531 L 180.515625 133.347656 L 183.300781 127.980469 L 176.984375 131.417969 Z M 177.167969 133.070312 " fill-opacity="1" fill-rule="nonzero"/><path fill="#41b883" d="M 182.558594 125.230469 L 177.914062 122.757812 L 178.101562 120.832031 L 183.671875 117.394531 L 181.8125 120.96875 Z M 182.558594 125.230469 " fill-opacity="1" fill-rule="nonzero"/><path fill="#41b883" d="M 281.558594 359.832031 C 185.105469 241.445312 90.917969 359.832031 92.308594 358.597656 C 188.859375 272.734375 249.472656 331.554688 270.5625 359.832031 Z M 281.558594 359.832031 " fill-opacity="1" fill-rule="nonzero"/><g fill="#ffffff" fill-opacity="1"><g transform="translate(105.733658, 279.99609)"><g><path d="M 36.875 1.125 C 27.519531 1.125 20.234375 -1.460938 15.015625 -6.640625 C 9.804688 -11.816406 7.203125 -19.210938 7.203125 -28.828125 L 7.203125 -65.515625 L 22.375 -65.515625 L 22.375 -29.390625 C 22.375 -17.660156 27.238281 -11.796875 36.96875 -11.796875 C 41.707031 -11.796875 45.320312 -13.210938 47.8125 -16.046875 C 50.3125 -18.890625 51.5625 -23.335938 51.5625 -29.390625 L 51.5625 -65.515625 L 66.546875 -65.515625 L 66.546875 -28.828125 C 66.546875 -19.210938 63.941406 -11.816406 58.734375 -6.640625 C 53.523438 -1.460938 46.238281 1.125 36.875 1.125 Z M 36.875 1.125 "/></g></g></g><g fill="#ffffff" fill-opacity="1"><g transform="translate(179.479301, 279.99609)"><g><path d="M 58.5 -12.171875 L 58.5 0 L 7.765625 0 L 7.765625 -65.515625 L 57.28125 -65.515625 L 57.28125 -53.34375 L 22.84375 -53.34375 L 22.84375 -39.125 L 53.25 -39.125 L 53.25 -27.328125 L 22.84375 -27.328125 L 22.84375 -12.171875 Z M 58.5 -12.171875 "/></g></g></g><g fill="#ffffff" fill-opacity="1"><g transform="translate(242.275397, 279.99609)"><g><path d="M 12.265625 0.75 C 9.703125 0.75 7.546875 -0.125 5.796875 -1.875 C 4.054688 -3.625 3.1875 -5.804688 3.1875 -8.421875 C 3.1875 -11.109375 4.054688 -13.273438 5.796875 -14.921875 C 7.546875 -16.578125 9.703125 -17.40625 12.265625 -17.40625 C 14.816406 -17.40625 16.96875 -16.578125 18.71875 -14.921875 C 20.46875 -13.273438 21.34375 -11.109375 21.34375 -8.421875 C 21.34375 -5.804688 20.46875 -3.625 18.71875 -1.875 C 16.96875 -0.125 14.816406 0.75 12.265625 0.75 Z M 12.265625 0.75 "/></g></g></g><g fill="#ffffff" fill-opacity="1"><g transform="translate(266.794889, 279.99609)"><g><path d="M 19.84375 1.125 C 15.414062 1.125 11.34375 0.296875 7.625 -1.359375 C 3.914062 -3.015625 0.875 -5.367188 -1.5 -8.421875 L 6.921875 -18.53125 C 10.484375 -13.726562 14.539062 -11.328125 19.09375 -11.328125 C 25.269531 -11.328125 28.359375 -14.945312 28.359375 -22.1875 L 28.359375 -53.34375 L 5.328125 -53.34375 L 5.328125 -65.515625 L 43.421875 -65.515625 L 43.421875 -23.03125 C 43.421875 -14.976562 41.425781 -8.9375 37.4375 -4.90625 C 33.445312 -0.882812 27.582031 1.125 19.84375 1.125 Z M 19.84375 1.125 "/></g></g></g><g fill="#ffffff" fill-opacity="1"><g transform="translate(317.424829, 279.99609)"><g><path d="M 29.296875 1.125 C 24.117188 1.125 19.109375 0.421875 14.265625 -0.984375 C 9.429688 -2.390625 5.550781 -4.210938 2.625 -6.453125 L 7.765625 -17.875 C 10.578125 -15.8125 13.914062 -14.15625 17.78125 -12.90625 C 21.644531 -11.664062 25.515625 -11.046875 29.390625 -11.046875 C 33.691406 -11.046875 36.875 -11.679688 38.9375 -12.953125 C 41 -14.234375 42.03125 -15.9375 42.03125 -18.0625 C 42.03125 -19.625 41.421875 -20.914062 40.203125 -21.9375 C 38.984375 -22.96875 37.421875 -23.796875 35.515625 -24.421875 C 33.617188 -25.046875 31.046875 -25.734375 27.796875 -26.484375 C 22.804688 -27.671875 18.71875 -28.859375 15.53125 -30.046875 C 12.351562 -31.234375 9.625 -33.132812 7.34375 -35.75 C 5.070312 -38.375 3.9375 -41.867188 3.9375 -46.234375 C 3.9375 -50.035156 4.960938 -53.476562 7.015625 -56.5625 C 9.078125 -59.65625 12.179688 -62.109375 16.328125 -63.921875 C 20.484375 -65.734375 25.554688 -66.640625 31.546875 -66.640625 C 35.722656 -66.640625 39.804688 -66.140625 43.796875 -65.140625 C 47.796875 -64.140625 51.289062 -62.707031 54.28125 -60.84375 L 49.609375 -49.328125 C 43.554688 -52.753906 37.503906 -54.46875 31.453125 -54.46875 C 27.203125 -54.46875 24.0625 -53.78125 22.03125 -52.40625 C 20.007812 -51.039062 19 -49.234375 19 -46.984375 C 19 -44.734375 20.164062 -43.0625 22.5 -41.96875 C 24.84375 -40.882812 28.414062 -39.8125 33.21875 -38.75 C 38.21875 -37.5625 42.304688 -36.375 45.484375 -35.1875 C 48.671875 -34 51.398438 -32.125 53.671875 -29.5625 C 55.953125 -27.007812 57.09375 -23.550781 57.09375 -19.1875 C 57.09375 -15.445312 56.046875 -12.03125 53.953125 -8.9375 C 51.867188 -5.851562 48.734375 -3.40625 44.546875 -1.59375 C 40.367188 0.21875 35.285156 1.125 29.296875 1.125 Z M 29.296875 1.125 "/></g></g></g><g clip-path="url(#0f4fa07ab4)"><path fill="#737373" d="M 85.988281 182.121094 L 69.863281 210.050781 L 53.738281 182.121094 L 0.0429688 182.121094 L 69.863281 303.058594 L 139.683594 182.121094 Z M 85.988281 182.121094 " fill-opacity="1" fill-rule="nonzero"/></g><g clip-path="url(#73b61a3033)"><path fill="#ffffff" d="M 85.988281 182.121094 L 69.863281 210.050781 L 53.738281 182.121094 L 27.96875 182.121094 L 69.863281 254.683594 L 111.757812 182.121094 Z M 85.988281 182.121094 " fill-opacity="1" fill-rule="nonzero"/></g><g fill="#41b883" fill-opacity="1"><g transform="translate(18.436031, 205.292183)"><g><path d="M 13.625 -6.515625 L 16.34375 -1.75 C 17.101562 -0.414062 17.375 0.859375 17.15625 2.078125 C 16.945312 3.296875 16.1875 4.273438 14.875 5.015625 C 13.570312 5.765625 12.304688 5.929688 11.078125 5.515625 C 9.859375 5.109375 8.875 4.25 8.125 2.9375 L 7.109375 1.15625 L 2.25 3.9375 L 0.546875 0.953125 Z M 9.484375 -0.203125 L 9.96875 0.640625 C 10.34375 1.304688 10.785156 1.773438 11.296875 2.046875 C 11.816406 2.316406 12.378906 2.273438 12.984375 1.921875 C 13.609375 1.566406 13.929688 1.097656 13.953125 0.515625 C 13.984375 -0.0546875 13.8125 -0.675781 13.4375 -1.34375 L 12.953125 -2.1875 Z M 9.484375 -0.203125 "/></g></g></g><g fill="#41b883" fill-opacity="1"><g transform="translate(27.917336, 221.877849)"><g><path d="M 17.421875 0.125 L 7.359375 12.875 L 5.53125 9.671875 L 7.609375 7.203125 L 4.75 2.234375 L 1.578125 2.75 L -0.25 -0.453125 L 15.84375 -2.625 Z M 9.625 4.6875 L 12.59375 1.046875 L 12.578125 1.03125 L 7.953125 1.75 Z M 9.625 4.6875 "/></g></g></g><g fill="#41b883" fill-opacity="1"><g transform="translate(38.468054, 240.334243)"><g><path d="M 13.625 -6.515625 L 16.296875 -1.84375 C 17.015625 -0.582031 17.265625 0.628906 17.046875 1.796875 C 16.828125 2.972656 16.097656 3.921875 14.859375 4.640625 C 13.898438 5.179688 12.957031 5.398438 12.03125 5.296875 C 11.101562 5.191406 10.269531 4.800781 9.53125 4.125 L 6.703125 11.71875 L 4.53125 7.9375 L 7.421875 0.984375 L 2.25 3.9375 L 0.546875 0.953125 Z M 9.53125 -0.234375 L 9.734375 0.109375 C 9.890625 0.378906 10.023438 0.609375 10.140625 0.796875 C 10.265625 0.992188 10.425781 1.195312 10.625 1.40625 C 10.820312 1.613281 11.023438 1.753906 11.234375 1.828125 C 11.441406 1.910156 11.679688 1.9375 11.953125 1.90625 C 12.234375 1.882812 12.53125 1.785156 12.84375 1.609375 C 13.164062 1.429688 13.410156 1.222656 13.578125 0.984375 C 13.742188 0.753906 13.835938 0.53125 13.859375 0.3125 C 13.890625 0.101562 13.867188 -0.140625 13.796875 -0.421875 C 13.722656 -0.703125 13.632812 -0.941406 13.53125 -1.140625 C 13.4375 -1.335938 13.3125 -1.570312 13.15625 -1.84375 L 12.953125 -2.1875 Z M 9.53125 -0.234375 "/></g></g></g><g fill="#41b883" fill-opacity="1"><g transform="translate(48.402496, 257.712583)"><g><path d="M 15.328125 -3.53125 L 2.25 3.9375 L 0.546875 0.953125 L 13.625 -6.515625 Z M 15.328125 -3.53125 "/></g></g></g><g fill="#41b883" fill-opacity="1"><g transform="translate(54.639309, 268.622653)"><g><path d="M 16.625 -1.828125 C 17.03125 -1.117188 17.320312 -0.375 17.5 0.40625 C 17.675781 1.195312 17.753906 1.816406 17.734375 2.265625 L 17.71875 2.921875 L 14.640625 3.078125 C 14.640625 2.953125 14.644531 2.769531 14.65625 2.53125 C 14.664062 2.300781 14.617188 1.90625 14.515625 1.34375 C 14.421875 0.789062 14.257812 0.316406 14.03125 -0.078125 C 13.75 -0.578125 13.421875 -0.898438 13.046875 -1.046875 C 12.679688 -1.203125 12.320312 -1.175781 11.96875 -0.96875 C 11.789062 -0.863281 11.660156 -0.707031 11.578125 -0.5 C 11.492188 -0.289062 11.445312 0.015625 11.4375 0.421875 C 11.4375 0.835938 11.453125 1.191406 11.484375 1.484375 C 11.523438 1.773438 11.578125 2.226562 11.640625 2.84375 C 11.765625 3.882812 11.6875 4.878906 11.40625 5.828125 C 11.132812 6.785156 10.601562 7.492188 9.8125 7.953125 C 9.0625 8.378906 8.332031 8.613281 7.625 8.65625 C 6.914062 8.707031 6.265625 8.585938 5.671875 8.296875 C 5.078125 8.003906 4.539062 7.617188 4.0625 7.140625 C 3.582031 6.660156 3.148438 6.085938 2.765625 5.421875 C 2.441406 4.847656 2.179688 4.253906 1.984375 3.640625 C 1.796875 3.023438 1.679688 2.484375 1.640625 2.015625 C 1.609375 1.546875 1.585938 1.109375 1.578125 0.703125 C 1.578125 0.304688 1.597656 0.0078125 1.640625 -0.1875 L 1.6875 -0.5 L 5.0625 -0.421875 C 5.03125 -0.234375 4.992188 0.015625 4.953125 0.328125 C 4.910156 0.640625 4.910156 1.15625 4.953125 1.875 C 5.003906 2.601562 5.15625 3.1875 5.40625 3.625 C 6.125 4.875 6.914062 5.253906 7.78125 4.765625 C 7.945312 4.660156 8.082031 4.519531 8.1875 4.34375 C 8.289062 4.164062 8.351562 3.921875 8.375 3.609375 C 8.394531 3.296875 8.398438 3.023438 8.390625 2.796875 C 8.390625 2.566406 8.367188 2.203125 8.328125 1.703125 C 8.285156 1.203125 8.257812 0.832031 8.25 0.59375 C 8.1875 -0.425781 8.320312 -1.320312 8.65625 -2.09375 C 9 -2.863281 9.503906 -3.441406 10.171875 -3.828125 C 11.347656 -4.492188 12.554688 -4.601562 13.796875 -4.15625 C 15.046875 -3.71875 15.988281 -2.941406 16.625 -1.828125 Z M 16.625 -1.828125 "/></g></g></g></svg>